<?xml version="1.0" encoding="UTF-8"?>
<svg version="1.1" xmlns="http://www.w3.org/2000/svg" width="512" height="512">
<path d="M0 0 C1.21977539 -0.00950684 2.43955078 -0.01901367 3.69628906 -0.02880859 C11.24145712 -0.00050635 18.17561655 0.31369424 25.15625 3.3515625 C27.55846654 6.45655515 27.21397475 9.86755743 27.125 13.625 C27.11291504 14.43138916 27.10083008 15.23777832 27.08837891 16.06860352 C26.61950125 30.37789704 20.74030975 42.95632137 11.43359375 53.69140625 C9.30949882 55.52188979 7.26193556 56.34397599 4.625 57.25 C5.07552734 58.89548828 5.07552734 58.89548828 5.53515625 60.57421875 C5.91983615 62.02849642 6.3039194 63.482932 6.6875 64.9375 C6.88666016 65.65873047 7.08582031 66.37996094 7.29101562 67.12304688 C9.16690182 74.33039911 9.16690182 74.33039911 7.625 78.25 C5.11335359 80.44690375 2.01844672 82.25 -1.375 82.25 C1.55971237 95.80103588 4.49650791 109.35161972 7.4344902 122.90194702 C7.93466006 125.20884453 8.43479511 127.51574958 8.93489456 129.82266235 C15.76835577 161.34430439 22.62650757 192.86043523 29.51556993 224.36996984 C30.23113638 227.64302906 30.94654617 230.9161225 31.66195351 234.18921649 C34.84299776 248.74280732 38.02463671 263.29626608 41.21182942 277.84851182 C42.55443597 283.97906382 43.89562124 290.10992566 45.23574424 296.24102104 C46.16893091 300.50996665 47.10388696 304.77851943 48.04020387 309.04677951 C48.74323128 312.25412947 49.44356122 315.46206844 50.14428711 318.66992188 C50.39807412 319.82422762 50.65186113 320.97853336 50.91333866 322.16781807 C51.25466658 323.73404317 51.25466658 323.73404317 51.60289001 325.33190918 C51.90098776 326.69336689 51.90098776 326.69336689 52.20510769 328.0823288 C52.625 330.25 52.625 330.25 52.625 332.25 C53.31207031 332.22679687 53.99914062 332.20359375 54.70703125 332.1796875 C55.60808594 332.16164063 56.50914062 332.14359375 57.4375 332.125 C58.33082031 332.10179687 59.22414063 332.07859375 60.14453125 332.0546875 C62.625 332.25 62.625 332.25 65.625 334.25 C66.57421875 337.3671875 66.57421875 337.3671875 67.3125 341.125 C67.56386719 342.35992187 67.81523437 343.59484375 68.07421875 344.8671875 C68.625 348.25 68.625 348.25 68.625 352.25 C69.924375 352.37375 71.22375 352.4975 72.5625 352.625 C79.28245748 354.09136435 82.44965578 359.16129923 86.625 364.25 C87.81460282 365.4767779 89.02127154 366.687412 90.25 367.875 C93.27481656 370.84418775 96.03276206 373.9853625 98.7890625 377.203125 C101.35058875 380.05895426 104.12211694 382.6765826 106.92578125 385.29296875 C108.83141965 387.48773849 109.6940673 389.51390845 110.625 392.25 C106.83865172 397.39764835 103.10439187 400.12506571 97.4375 403 C96.61145264 403.42410156 95.78540527 403.84820312 94.93432617 404.28515625 C33.72792989 434.83484737 -42.80190733 448.88491053 -110.375 455.25 C-112.20611328 455.44529297 -112.20611328 455.44529297 -114.07421875 455.64453125 C-122.25483898 456.39920101 -130.47846381 456.38121608 -138.6875 456.4375 C-140.49613525 456.45719849 -140.49613525 456.45719849 -142.34130859 456.47729492 C-158.91977527 456.49223462 -158.91977527 456.49223462 -165.375 451.25 C-163.01182471 441.79193105 -159.93978078 432.57657054 -156.81420898 423.34960938 C-156.22557867 421.60420822 -155.64297327 419.85676453 -155.06616211 418.10742188 C-154.22500693 415.55665382 -153.36657189 413.01231176 -152.50390625 410.46875 C-152.12245201 409.29693176 -152.12245201 409.29693176 -151.73329163 408.10144043 C-150.3374195 404.05769393 -149.2940937 401.25343396 -145.375 399.25 C-144.715 399.25 -144.055 399.25 -143.375 399.25 C-143.82552734 397.60451172 -143.82552734 397.60451172 -144.28515625 395.92578125 C-144.66983615 394.47150358 -145.0539194 393.017068 -145.4375 391.5625 C-145.63666016 390.84126953 -145.83582031 390.12003906 -146.04101562 389.37695312 C-147.91690182 382.16960089 -147.91690182 382.16960089 -146.375 378.25 C-143.86335359 376.05309625 -140.76844672 374.25 -137.375 374.25 C-137.84611593 372.08635645 -138.31723194 369.92271292 -138.7883482 367.75906944 C-139.22332201 365.76141062 -139.65829473 363.76375157 -140.09326649 361.7660923 C-141.37150912 355.89562057 -142.64977346 350.02515358 -143.92807007 344.1546936 C-146.58662813 331.94540473 -149.24503119 319.7360822 -151.90277958 307.52661705 C-153.45851613 300.37970041 -155.01438682 293.23281297 -156.5703125 286.0859375 C-156.72831227 285.36018351 -156.88631204 284.63442952 -157.04909968 283.88668299 C-161.60660478 262.95254375 -166.16937849 242.01956017 -170.7371574 221.08766031 C-171.8485468 215.9945501 -172.95955715 210.90135732 -174.07029724 205.80810547 C-174.22472658 205.09997821 -174.37915592 204.39185096 -174.53826493 203.6622653 C-175.30796309 200.13278668 -176.07761009 196.60329691 -176.84722042 193.07379913 C-178.50410644 185.47556381 -180.16233451 177.87762356 -181.82215381 170.28002846 C-183.09289253 164.46282308 -184.36150212 158.64515472 -185.62932205 152.82731247 C-186.15105097 150.43490099 -186.67350806 148.04264818 -187.19672775 145.65056229 C-187.908034 142.39814864 -188.61681786 139.14519554 -189.32495117 135.89208984 C-189.53506238 134.93432522 -189.74517359 133.97656059 -189.9616518 132.9897728 C-190.14975516 132.12314137 -190.33785852 131.25650993 -190.53166199 130.36361694 C-190.69570117 129.61209539 -190.85974035 128.86057384 -191.02875042 128.08627892 C-191.375 126.25 -191.375 126.25 -191.375 124.25 C-192.06207031 124.27320313 -192.74914062 124.29640625 -193.45703125 124.3203125 C-194.35808594 124.33835937 -195.25914062 124.35640625 -196.1875 124.375 C-197.08082031 124.39820313 -197.97414062 124.42140625 -198.89453125 124.4453125 C-201.375 124.25 -201.375 124.25 -204.375 122.25 C-205.32421875 119.1328125 -205.32421875 119.1328125 -206.0625 115.375 C-206.31386719 114.14007813 -206.56523437 112.90515625 -206.82421875 111.6328125 C-207.375 108.25 -207.375 108.25 -207.375 104.25 C-207.98085937 104.17523438 -208.58671875 104.10046875 -209.2109375 104.0234375 C-223.47410532 101.78521732 -234.52661551 91.78944032 -242.90625 80.4453125 C-246.14501055 75.60439912 -249.50474586 70.21830939 -249.375 64.25 C-245.63199379 58.75574792 -241.29238556 56.0552825 -235.4375 53.0625 C-234.52709961 52.59400635 -233.61669922 52.1255127 -232.67871094 51.64282227 C-164.86695638 17.9002247 -75.10625594 0.47772749 0 0 Z M-39.9453125 74.5625 C-40.84121094 74.83320312 -41.73710937 75.10390625 -42.66015625 75.3828125 C-43.59730469 75.66898437 -44.53445313 75.95515625 -45.5 76.25 C-46.44488281 76.53617187 -47.38976562 76.82234375 -48.36328125 77.1171875 C-50.70127771 77.82567128 -53.0384665 78.53670913 -55.375 79.25 C-53.92019262 82.15961476 -52.01193252 82.30318608 -49 83.4375 C-34.25113356 89.41771814 -24.26334708 97.83252936 -17.375 112.25 C-10.6049062 130.09625432 -14.84033685 149.37890643 -22.375 166.25 C-27.7280131 177.49132751 -34.49454346 187.26138879 -43.08422852 196.25805664 C-49.9243216 203.42312446 -54.37622582 208.92793016 -54.9375 219.1875 C-54.61437598 227.38025747 -51.73170545 233.21614847 -45.78515625 238.76953125 C-41.48090668 242.41827396 -37.00593637 244.51822864 -31.8125 246.625 C-8.51740639 256.65489157 12.27661655 271.11630392 22.5078125 295.19140625 C27.31107574 308.34159896 26.64278092 321.39955269 21.37109375 334.32421875 C18.01844351 341.45887771 13.70770648 347.26779536 8.625 353.25 C7.61485958 354.57566742 6.61126786 355.90647721 5.625 357.25 C8.54286964 356.96781919 11.458918 356.67465873 14.375 356.375 C15.2 356.29636719 16.025 356.21773438 16.875 356.13671875 C18.07382812 356.01103516 18.07382812 356.01103516 19.296875 355.8828125 C20.0300293 355.80949707 20.76318359 355.73618164 21.51855469 355.66064453 C24.03666244 355.2673409 24.03666244 355.2673409 27.625 353.25 C26.635 347.805 26.635 347.805 25.625 342.25 C27.64322917 341.01302083 29.66145833 339.77604167 31.6796875 338.5390625 C33.74293582 337.2646287 33.74293582 337.2646287 35.625 335.25 C35.47233604 332.86940109 35.47233604 332.86940109 34.79870605 330.10844421 C34.5640416 329.01498373 34.32937716 327.92152325 34.08760166 326.7949276 C33.81570483 325.58602678 33.543808 324.37712597 33.26367188 323.1315918 C32.98677741 321.85788538 32.70988295 320.58417896 32.42459774 319.27187538 C31.65637255 315.7393614 30.87370855 312.21017939 30.08871913 308.68135858 C29.25431963 304.91850502 28.43332858 301.15272754 27.6108551 297.38725281 C26.1987955 290.93113592 24.77847118 284.47688408 23.35232544 278.02386475 C21.31403994 268.80094683 19.28775462 259.57542833 17.26517928 250.34905386 C16.34274743 246.14127708 15.41986698 241.93359873 14.49684143 237.72595215 C14.31397849 236.89236419 14.13111554 236.05877624 13.94271129 235.19992805 C12.64465896 229.28407433 11.34411228 223.36877222 10.04234314 217.45373535 C5.53910841 196.99035547 1.0647265 176.52107032 -3.37109375 156.04296875 C-3.89377002 153.63174102 -4.41648453 151.22052158 -4.9392395 148.80931091 C-6.86858133 139.90878858 -8.79757198 131.00819238 -10.72167969 122.10653687 C-11.80878216 117.07815025 -12.89938874 112.05053649 -13.99275398 107.02350807 C-14.38622299 105.21127215 -14.77835928 103.39874628 -15.16906548 101.5859127 C-15.6925864 99.15727598 -16.22056626 96.72965284 -16.74975586 94.30224609 C-16.90167641 93.59202144 -17.05359695 92.88179678 -17.21012115 92.15005016 C-17.71974751 88.92453373 -17.71974751 88.92453373 -19.375 86.25 C-21.22391946 86.01636119 -23.07988031 85.83696365 -24.9375 85.6875 C-26.731875 85.543125 -28.52625 85.39875 -30.375 85.25 C-31.365 81.29 -32.355 77.33 -33.375 73.25 C-35.78726308 73.25 -37.63416427 73.86037902 -39.9453125 74.5625 Z M-152.703125 99.90625 C-153.50234375 100.04160156 -154.3015625 100.17695312 -155.125 100.31640625 C-156.3625 100.53103516 -156.3625 100.53103516 -157.625 100.75 C-158.46546875 100.89308594 -159.3059375 101.03617187 -160.171875 101.18359375 C-162.2400854 101.53612961 -164.30761187 101.89267366 -166.375 102.25 C-165.715 106.21 -165.055 110.17 -164.375 114.25 C-172.125 119.125 -172.125 119.125 -174.375 120.25 C-169.98540823 143.10268389 -164.92447292 165.80821286 -159.92285919 188.53283691 C-157.89224992 197.76183335 -155.86648403 206.99189534 -153.83998108 216.22179413 C-153.30644123 218.65165124 -152.77279986 221.08148607 -152.23905945 223.51129913 C-148.148557 242.1337162 -144.08044911 260.7609059 -140.02622795 279.3912468 C-139.1203052 283.5540366 -138.21374305 287.71668697 -137.30702209 291.87930298 C-137.00810068 293.25166763 -136.70917941 294.62403231 -136.41025829 295.99639702 C-135.96502977 298.04044899 -135.51979383 300.08449934 -135.07453215 302.12854409 C-133.31987374 310.18383577 -131.56745109 318.23960692 -129.81836432 326.29611027 C-128.58883754 331.95838457 -127.35548875 337.6198211 -126.12076378 343.2809639 C-125.61104198 345.62118483 -125.10264462 347.96169466 -124.59562111 350.30250168 C-123.90388794 353.49538606 -123.2076525 356.68725534 -122.51025391 359.87890625 C-122.30681272 360.82332392 -122.10337152 361.76774158 -121.89376545 362.74077797 C-121.61348641 364.01680161 -121.61348641 364.01680161 -121.32754517 365.31860352 C-121.16660685 366.05885269 -121.00566853 366.79910187 -120.83985329 367.56178284 C-120.51879061 369.27088208 -120.51879061 369.27088208 -119.375 370.25 C-117.52608054 370.48363881 -115.67011969 370.66303635 -113.8125 370.8125 C-112.29462891 370.93818359 -112.29462891 370.93818359 -110.74609375 371.06640625 C-109.96363281 371.12699219 -109.18117188 371.18757813 -108.375 371.25 C-108.18164062 372.03246094 -107.98828125 372.81492187 -107.7890625 373.62109375 C-107.39847656 375.13896484 -107.39847656 375.13896484 -107 376.6875 C-106.74476563 377.69683594 -106.48953125 378.70617187 -106.2265625 379.74609375 C-105.64926046 382.40570324 -105.64926046 382.40570324 -103.375 383.25 C-101.21969495 382.82613403 -101.21969495 382.82613403 -98.8046875 382.03515625 C-97.90878906 381.76123047 -97.01289063 381.48730469 -96.08984375 381.20507812 C-94.68412109 380.76325195 -94.68412109 380.76325195 -93.25 380.3125 C-92.30511719 380.02181641 -91.36023438 379.73113281 -90.38671875 379.43164062 C-88.04737987 378.71093521 -85.71036079 377.98347394 -83.375 377.25 C-84.82980738 374.34038524 -86.73806748 374.19681392 -89.75 373.0625 C-104.49886644 367.08228186 -114.48665292 358.66747064 -121.375 344.25 C-128.1450938 326.40374568 -123.90966315 307.12109357 -116.375 290.25 C-111.0219869 279.00867249 -104.25545654 269.23861121 -95.66577148 260.24194336 C-88.8256784 253.07687554 -84.37377418 247.57206984 -83.8125 237.3125 C-84.13532549 229.12731169 -87.01355419 223.28932374 -92.953125 217.73828125 C-97.30859666 214.04557714 -101.87427439 211.89774931 -107.125 209.75 C-119.10434574 204.58981837 -129.35728428 198.70628543 -139.375 190.25 C-139.97699219 189.79367188 -140.57898438 189.33734375 -141.19921875 188.8671875 C-152.46643393 180.09504328 -161.64160193 165.59886232 -164.12890625 151.546875 C-165.88280677 135.17713685 -161.46235534 120.63134438 -151.1875 107.75 C-149.91861034 106.24835544 -148.64793879 104.74821367 -147.375 103.25 C-146.36485958 101.92433258 -145.36126786 100.59352279 -144.375 99.25 C-147.37363974 99.25 -149.79611568 99.40790555 -152.703125 99.90625 Z " fill="#BF7D5A" transform="translate(325.375,27.75)"/>
<path d="M0 0 C1.02758423 0.5273877 1.02758423 0.5273877 2.07592773 1.06542969 C14.37559931 7.69593406 23.32019257 17.30290606 28.2734375 30.5234375 C34.0655107 50.34401825 28.0706292 70.42863767 18.9375 88.1875 C14.10573289 96.84311721 8.31243869 104.47508379 1.47827148 111.63305664 C-5.3618216 118.79812446 -9.81372582 124.30293016 -10.375 134.5625 C-10.11594571 141.34108713 -8.15508683 147.14309054 -3.40087891 152.09545898 C1.15259093 156.29850904 6.00269995 158.59724728 11.6875 160.9375 C35.29321053 171.18112061 56.67828031 186.11283897 67.0703125 210.56640625 C71.87357574 223.71659896 71.20528092 236.77455269 65.93359375 249.69921875 C59.36927178 263.66852517 49.69370034 272.0486136 37.1875 280.625 C37.8475 283.595 38.5075 286.565 39.1875 289.625 C34.69773415 293.79709374 30.76347327 295.88697565 24.9375 297.6875 C23.75776611 298.06092529 23.75776611 298.06092529 22.55419922 298.44189453 C20.10598698 299.19785256 17.65057609 299.91907627 15.1875 300.625 C14.43823242 300.8410791 13.68896484 301.0571582 12.91699219 301.27978516 C1.10926637 304.57016294 -10.57386319 305.66916941 -22.8125 304.625 C-24.8125 302.625 -24.8125 302.625 -25.0078125 300.4609375 C-24.98460937 299.64882813 -24.96140625 298.83671875 -24.9375 298 C-24.91945313 297.18273437 -24.90140625 296.36546875 -24.8828125 295.5234375 C-24.85960937 294.89695312 -24.83640625 294.27046875 -24.8125 293.625 C-25.53953125 293.59921875 -26.2665625 293.5734375 -27.015625 293.546875 C-44.09478468 292.58343522 -58.72061415 285.47975791 -70.49365234 273.12353516 C-79.74901936 262.60716294 -82.41823444 250.08129348 -82.09765625 236.421875 C-80.36261524 213.31968508 -68.90048355 192.16263381 -53.10327148 175.61694336 C-46.2631784 168.45187554 -41.81127418 162.94706984 -41.25 152.6875 C-41.50898035 145.9108474 -43.46927853 140.11345264 -48.2175293 135.15893555 C-52.81590161 130.91082594 -57.76225764 128.5679599 -63.5 126.1875 C-75.4765805 120.99371955 -85.80688792 115.11615719 -95.8125 106.625 C-96.48796875 106.09519531 -97.1634375 105.56539063 -97.859375 105.01953125 C-109.83330538 95.32064764 -120.1454542 80.18409414 -121.8125 64.625 C-123.08995144 47.9949049 -117.50456443 33.36357543 -106.73046875 20.75 C-97.54462459 10.5726085 -84.29538597 10.30260645 -71.3125 8 C-62.07263579 6.34521736 -52.92419153 4.47811486 -43.81640625 2.19921875 C-42.98551483 1.99174011 -42.15462341 1.78426147 -41.29855347 1.57049561 C-37.2375619 0.55008323 -33.18418765 -0.49414645 -29.13671875 -1.56689453 C-18.17587067 -4.41664881 -10.27408745 -5.30825698 0 0 Z " fill="#E9E6FB" transform="translate(281.8125,112.375)"/>
<path d="M0 0 C1.60379341 -0.05416188 3.20811406 -0.09286638 4.8125 -0.125 C5.70582031 -0.14820313 6.59914063 -0.17140625 7.51953125 -0.1953125 C10 0 10 0 13 2 C13.94921875 5.1171875 13.94921875 5.1171875 14.6875 8.875 C15.06455078 10.72738281 15.06455078 10.72738281 15.44921875 12.6171875 C16 16 16 16 16 20 C17.299375 20.12375 18.59875 20.2475 19.9375 20.375 C26.65745748 21.84136435 29.82465578 26.91129923 34 32 C35.18960282 33.2267779 36.39627154 34.437412 37.625 35.625 C40.64981656 38.59418775 43.40776206 41.7353625 46.1640625 44.953125 C48.72558875 47.80895426 51.49711694 50.4265826 54.30078125 53.04296875 C56.20641965 55.23773849 57.0690673 57.26390845 58 60 C54.21365172 65.14764835 50.47939187 67.87506571 44.8125 70.75 C43.98645264 71.17410156 43.16040527 71.59820312 42.30932617 72.03515625 C-18.89707011 102.58484737 -95.42690733 116.63491053 -163 123 C-164.22074219 123.13019531 -165.44148438 123.26039063 -166.69921875 123.39453125 C-174.87983898 124.14920101 -183.10346381 124.13121608 -191.3125 124.1875 C-193.12113525 124.20719849 -193.12113525 124.20719849 -194.96630859 124.22729492 C-211.54477527 124.24223462 -211.54477527 124.24223462 -218 119 C-215.63682471 109.54193105 -212.56478078 100.32657054 -209.43920898 91.09960938 C-208.85057867 89.35420822 -208.26797327 87.60676453 -207.69116211 85.85742188 C-206.85000693 83.30665382 -205.99157189 80.76231176 -205.12890625 78.21875 C-204.87460342 77.43753784 -204.6203006 76.65632568 -204.35829163 75.85144043 C-202.9624195 71.80769393 -201.9190937 69.00343396 -198 67 C-197.34 67 -196.68 67 -196 67 C-196.30035156 65.90300781 -196.60070312 64.80601562 -196.91015625 63.67578125 C-197.29483615 62.22150358 -197.6789194 60.767068 -198.0625 59.3125 C-198.26166016 58.59126953 -198.46082031 57.87003906 -198.66601562 57.12695312 C-200.54015527 49.92631133 -200.54015527 49.92631133 -199 46 C-197.4765625 44.671875 -197.4765625 44.671875 -195.625 43.75 C-194.71621094 43.27820313 -194.71621094 43.27820313 -193.7890625 42.796875 C-192 42 -192 42 -189 41 C-188.67 42.98 -188.34 44.96 -188 47 C-182.72 46.01 -177.44 45.02 -172 44 C-172 42.02 -172 40.04 -172 38 C-170.20906809 37.91913853 -168.41710372 37.86087298 -166.625 37.8125 C-165.12839844 37.76029297 -165.12839844 37.76029297 -163.6015625 37.70703125 C-162.74304688 37.80371094 -161.88453125 37.90039062 -161 38 C-159.09681116 40.85478326 -158.5380901 42.41941308 -157.875 45.6875 C-157.62363281 46.89986328 -157.62363281 46.89986328 -157.3671875 48.13671875 C-157.24601562 48.75160156 -157.12484375 49.36648438 -157 50 C-156.4423999 49.80776855 -155.8847998 49.61553711 -155.31030273 49.41748047 C-143.19525772 45.33806418 -133.59195757 42.78914753 -121 46 C-120.93941406 46.63808594 -120.87882812 47.27617187 -120.81640625 47.93359375 C-120.73261719 48.75988281 -120.64882813 49.58617187 -120.5625 50.4375 C-120.44068359 51.67306641 -120.44068359 51.67306641 -120.31640625 52.93359375 C-120.21069185 54.98662025 -120.21069185 54.98662025 -119 56 C-101.23782546 57.5252302 -73.61377884 55.25205003 -59.1640625 43.5078125 C-57.71804739 41.99256564 -57.71804739 41.99256564 -58.25 39.5625 C-58.4975 38.716875 -58.745 37.87125 -59 37 C-59.33730009 35.66766463 -59.67133535 34.33449183 -60 33 C-51.26084632 24.56150527 -42.70713854 23.34396536 -31.00195312 22.26196289 C-28.79664387 22.03802872 -28.79664387 22.03802872 -26 21 C-26.99 15.555 -26.99 15.555 -28 10 C-20.8 4 -20.8 4 -16 4 C-16 5.65 -16 7.3 -16 9 C-13.87439563 8.69163768 -11.74952935 8.37818386 -9.625 8.0625 C-8.44164062 7.88847656 -7.25828125 7.71445312 -6.0390625 7.53515625 C-3.09297619 7.16537214 -3.09297619 7.16537214 -1 6 C-0.34227572 2.97065509 -0.34227572 2.97065509 0 0 Z " fill="#CB8F5C" transform="translate(378,360)"/>
<path d="M0 0 C1.55810547 2.11035156 1.55810547 2.11035156 2.8671875 4.890625 C3.35743408 5.90487549 3.84768066 6.91912598 4.3527832 7.96411133 C4.85511475 9.04845459 5.35744629 10.13279785 5.875 11.25 C6.92661034 13.44746494 7.97998437 15.64408676 9.03515625 17.83984375 C9.54062988 18.90187012 10.04610352 19.96389648 10.56689453 21.05810547 C12.84029335 25.72496335 15.38758653 30.21492218 17.98828125 34.70703125 C19 37 19 37 18 40 C16.13110352 41.00805664 16.13110352 41.00805664 13.62890625 41.91015625 C12.2056604 42.42751343 12.2056604 42.42751343 10.75366211 42.95532227 C9.70057861 43.32069092 8.64749512 43.68605957 7.5625 44.0625 C6.45720947 44.45171631 5.35191895 44.84093262 4.21313477 45.24194336 C-51.90737617 64.64110188 -117.24833053 83.2587321 -177 83 C-177.43146845 77.87745971 -177.85856067 72.75457953 -178.28173828 67.63134766 C-178.42606621 65.89134053 -178.57155464 64.15142924 -178.71826172 62.41162109 C-178.92987087 59.89966209 -179.13719659 57.38737918 -179.34375 54.875 C-179.44218201 53.72294067 -179.44218201 53.72294067 -179.54260254 52.54760742 C-179.93751219 47.68102795 -180.05812828 42.88277544 -180 38 C-179.42990707 37.92562714 -178.85981415 37.85125427 -178.27244568 37.77462769 C-137.938849 32.56694613 -137.938849 32.56694613 -98 25 C-97.19024719 24.82126343 -96.38049438 24.64252686 -95.54620361 24.45837402 C-71.42033267 19.12126377 -47.29242507 13.7707245 -23.9609375 5.53515625 C-22.17441772 4.90492554 -22.17441772 4.90492554 -20.35180664 4.26196289 C-18.04895045 3.44086448 -15.75090477 2.60610389 -13.45874023 1.75561523 C-12.42692627 1.38251221 -11.3951123 1.00940918 -10.33203125 0.625 C-9.42171143 0.28726562 -8.5113916 -0.05046875 -7.57348633 -0.3984375 C-4.55254305 -1.10459481 -2.89943307 -1.12127102 0 0 Z " fill="#BE7C59" transform="translate(384,400)"/>
<path d="M0 0 C2.14391895 1.03225727 4.10641075 2.07416507 6.0625 3.4375 C15.80497822 8.61966926 27.49472007 9.12640061 38.26171875 10.37304688 C48.44338718 11.65514316 58.66623359 13.30848888 66 21 C70.0176157 26.18060971 70.69775884 30.41834843 70.4375 36.94921875 C68.67588741 49.23332082 58.34334968 58.80533767 48.9375 66.05078125 C29.44677081 78.98412416 6.58299363 84.33952578 -16.62890625 80.3125 C-28.62766726 77.76496247 -41.00522343 72.65823327 -49 63 C-53.13809519 55.22339743 -52.84914663 47.55872542 -52 39 C-50.99848019 35.72518919 -49.67095136 34.10366966 -47 32 C-46.31421875 31.45859375 -45.6284375 30.9171875 -44.921875 30.359375 C-38.95397853 26.19310766 -32.52302492 23.39330823 -25.875 20.5 C-16.69652622 16.50421712 -8.8928219 12.38593885 -3 4 C-2.13375 2.8553125 -2.13375 2.8553125 -1.25 1.6875 C-0.63125 0.8521875 -0.63125 0.8521875 0 0 Z " fill="#F8CE6B" transform="translate(269,317)"/>
<path d="M0 0 C1.2684375 -0.01675781 2.536875 -0.03351563 3.84375 -0.05078125 C7.78150716 0.34047026 10.16363314 1.21745787 13.5 3.3125 C16.93046598 8.45819897 15.96634177 14.33418283 15.03515625 20.28125 C11.0421074 38.23815608 -0.53256424 51.94862878 -13.6875 64.25 C-19.38567508 69.84560793 -24.17142744 77.52382452 -24.6328125 85.65234375 C-24.61374891 91.9909867 -24.18312283 98.16896376 -23.42578125 104.46484375 C-23.51289168 107.80713352 -24.14939782 108.98386607 -26.5 111.3125 C-28.9375 111.875 -28.9375 111.875 -31.5 111.3125 C-34.86420222 107.78073216 -36.22110015 104.68061692 -37.4375 100 C-38.85025971 95.04973483 -40.48704009 91.09867844 -43.44921875 86.8984375 C-44.5 85.3125 -44.5 85.3125 -45.5 82.3125 C-47.33180125 81.19564804 -47.33180125 81.19564804 -49.5 80.3125 C-50.13035156 79.97992188 -50.76070312 79.64734375 -51.41015625 79.3046875 C-57.12961517 76.33596654 -62.98672718 73.83224677 -68.9375 71.375 C-85.2486619 64.56761877 -102.1521359 55.26380012 -109.83984375 38.32421875 C-111.33253121 33.7754966 -111.28881071 29.96524626 -109.1875 25.5625 C-101.67124533 19.26982167 -92.41408357 18.71803057 -83 18.9375 C-81.94941406 18.93878906 -80.89882812 18.94007813 -79.81640625 18.94140625 C-70.00183068 19.05059189 -60.954934 20.60411273 -51.69140625 23.82421875 C-49.16611453 24.38689516 -47.88913866 24.28293364 -45.5 23.3125 C-44.00793925 21.99524504 -44.00793925 21.99524504 -42.625 20.3125 C-34.82057313 12.17311918 -23.92363592 6.36794585 -13.5 2.3125 C-12.5615625 1.94640625 -11.623125 1.5803125 -10.65625 1.203125 C-6.99687437 0.17052891 -3.79963995 0.01158427 0 0 Z " fill="#F8CF6C" transform="translate(286.5,156.6875)"/>
<path d="M0 0 C-0.72316406 1.39412109 -0.72316406 1.39412109 -1.4609375 2.81640625 C-2.09928433 4.06493755 -2.73728678 5.31364495 -3.375 6.5625 C-3.69210938 7.17158203 -4.00921875 7.78066406 -4.3359375 8.40820312 C-10.16710215 19.88830852 -10.82821408 32.15729548 -7 44.375 C-6.62875 45.41398437 -6.2575 46.45296875 -5.875 47.5234375 C-5 50 -5 50 -5 52 C-6.04800781 52.48919922 -6.04800781 52.48919922 -7.1171875 52.98828125 C-8.02726562 53.42527344 -8.93734375 53.86226562 -9.875 54.3125 C-10.77992188 54.74175781 -11.68484375 55.17101562 -12.6171875 55.61328125 C-15.26449476 56.9199388 -15.26449476 56.9199388 -17 60 C-17.78599387 67.72893975 -15.80703436 72.5101735 -10.9765625 78.515625 C-4.53197092 85.86201949 1.98590867 91.88586921 10.6875 96.375 C11.4079248 96.75366211 12.12834961 97.13232422 12.87060547 97.52246094 C19.43556682 100.88544604 26.21607699 103.62843559 33.13549805 106.17333984 C42.4357234 109.67426774 48.27807952 114.13553579 53 123 C53.88086652 125.22131556 54.60608862 127.43621605 55.28515625 129.7265625 C56.87779847 134.79168695 59.05792588 139.58688883 62 144 C61.46632813 144.54785156 60.93265625 145.09570312 60.3828125 145.66015625 C43.00548985 164.14986806 30.31602736 187.40753425 31.0625 213.1875 C31.11921875 214.08500977 31.1759375 214.98251953 31.234375 215.90722656 C31.51854309 222.36225161 31.51854309 222.36225161 28.62109375 225.92578125 C27.75613281 226.61027344 26.89117187 227.29476562 26 228 C22.34972026 233.4754196 23.37656319 241.55835113 24 248 C25.81087245 255.46036075 31.25082553 259.71042781 37.55859375 263.5625 C56.21954856 273.69056231 78.21028972 275.02854181 98.44921875 269.13671875 C100.20685547 268.57404297 100.20685547 268.57404297 102 268 C103.07894531 267.67644531 104.15789062 267.35289062 105.26953125 267.01953125 C107.37250329 266.38423143 109.47157913 265.73588075 111.56640625 265.07421875 C115.65613095 263.79472581 119.76298283 262.58054542 123.875 261.375 C124.92772095 261.06574585 124.92772095 261.06574585 126.00170898 260.75024414 C130.32928606 259.48166554 134.6625574 258.23441578 139 257 C136.14325205 260.01693943 133.17651069 262.40554531 129.75 264.75 C128.85796875 265.36359375 127.9659375 265.9771875 127.046875 266.609375 C126.37140625 267.06828125 125.6959375 267.5271875 125 268 C125.66 270.97 126.32 273.94 127 277 C122.51023415 281.17209374 118.57597327 283.26197565 112.75 285.0625 C111.57026611 285.43592529 111.57026611 285.43592529 110.36669922 285.81689453 C107.91848698 286.57285256 105.46307609 287.29407627 103 288 C102.25073242 288.2160791 101.50146484 288.4321582 100.72949219 288.65478516 C88.92176637 291.94516294 77.23863681 293.04416941 65 292 C63 290 63 290 62.8046875 287.8359375 C62.82789063 287.02382813 62.85109375 286.21171875 62.875 285.375 C62.89304687 284.55773437 62.91109375 283.74046875 62.9296875 282.8984375 C62.95289063 282.27195312 62.97609375 281.64546875 63 281 C62.27296875 280.97421875 61.5459375 280.9484375 60.796875 280.921875 C43.71771532 279.95843522 29.09188585 272.85475791 17.31884766 260.49853516 C8.06348064 249.98216294 5.39426556 237.45629348 5.71484375 223.796875 C7.44988476 200.69468508 18.91201645 179.53763381 34.70922852 162.99194336 C41.5493216 155.82687554 46.00122582 150.32206984 46.5625 140.0625 C46.30351965 133.2858474 44.34322147 127.48845264 39.5949707 122.53393555 C34.99659839 118.28582594 30.05024236 115.9429599 24.3125 113.5625 C12.3359195 108.36871955 2.00561208 102.49115719 -8 94 C-8.67546875 93.47019531 -9.3509375 92.94039063 -10.046875 92.39453125 C-22.02080538 82.69564764 -32.3329542 67.55909414 -34 52 C-35.27879592 35.35240217 -29.67472003 20.77866367 -18.93359375 8.12890625 C-14.48538211 3.23138031 -7.10781014 -3.55390507 0 0 Z " fill="#D6D6EA" transform="translate(194,125)"/>
<path d="M0 0 C0.6707254 -0.00821777 1.34145081 -0.01643555 2.03250122 -0.02490234 C3.92523423 -0.04221134 5.81815167 -0.03342121 7.7109375 -0.0234375 C8.8045459 -0.02005371 9.8981543 -0.01666992 11.02490234 -0.01318359 C12.31195068 0.17896729 12.31195068 0.17896729 13.625 0.375 C14.615 1.86 14.615 1.86 15.625 3.375 C9.28761954 10.23207453 0.00481187 12.68168974 -8.5625 15.875 C-9.65510132 16.28359253 -9.65510132 16.28359253 -10.76977539 16.70043945 C-24.5033319 21.71980287 -38.57148955 25.60641237 -52.6875 29.375 C-54.23640494 29.79138104 -55.78523322 30.20804733 -57.33398438 30.625 C-61.22838745 31.6722426 -65.1249974 32.71100647 -69.02233887 33.74725342 C-71.37784508 34.37575913 -73.7314697 35.01096807 -76.08496094 35.64697266 C-87.32551682 38.66818475 -98.61666987 41.32431964 -110 43.75 C-110.89086304 43.94065033 -111.78172607 44.13130066 -112.69958496 44.32772827 C-187.86259587 60.34363988 -187.86259587 60.34363988 -224.9375 60.5625 C-226.05253906 60.57667969 -227.16757813 60.59085938 -228.31640625 60.60546875 C-231.40373222 60.37283499 -233.5898598 59.68717965 -236.375 58.375 C-235.33837608 55.17282612 -234.27965873 54.31463379 -231.3828125 52.48046875 C-230.09691187 51.82447306 -228.80181449 51.18631873 -227.5 50.5625 C-226.79020996 50.21703125 -226.08041992 49.8715625 -225.34912109 49.515625 C-217.47974068 45.79474887 -209.35453671 42.93842828 -201.08300781 40.25488281 C-199.31374347 39.68001546 -197.54729316 39.09639382 -195.78417969 38.50292969 C-146.29626811 21.87249775 -94.26030037 12.00220327 -42.80908203 3.76489258 C-40.67950432 3.42377567 -38.55065095 3.07849414 -36.421875 2.73242188 C-24.28285984 0.80186254 -12.27767303 0.09569136 0 0 Z " fill="#BE7D59" transform="translate(324.375,33.625)"/>
<path d="M0 0 C0.21930679 1.01264923 0.43861359 2.02529846 0.66456604 3.06863403 C2.88403656 13.31625566 5.10485307 23.56358505 7.32657623 33.81071854 C8.57204455 39.55531209 9.81710864 45.29999269 11.06130981 51.04486084 C17.2698407 79.70980603 23.51106022 108.36718296 29.81087619 137.01220238 C31.06563203 142.71788868 32.31895419 148.42388834 33.57133484 154.13009644 C33.74764275 154.93336597 33.92395067 155.7366355 34.10560125 156.56424654 C34.81584961 159.80028192 35.52606407 163.03632473 36.23611486 166.27240348 C38.34676642 175.8914628 40.4626488 185.50933738 42.58682942 195.12541842 C43.93367618 201.22456355 45.2744795 207.3250179 46.61074424 213.42649007 C47.38923101 216.98002079 48.17056405 220.53286601 48.95930099 224.08413696 C49.82165697 227.96705412 50.67103196 231.85274619 51.51928711 235.73876953 C51.89996763 237.43787066 51.89996763 237.43787066 52.28833866 239.17129707 C53.53077141 244.91738637 54.28190279 250.12051924 54 256 C48.41837536 258.85019131 44.21022478 259.30776478 38 259 C34.16624744 245.53051961 31.27420118 231.86886891 28.328125 218.18359375 C27.77137074 215.61073523 27.21431098 213.03794471 26.65684509 210.46524048 C25.31477674 204.26863234 23.97625757 198.07126329 22.6390503 191.87360454 C19.98167305 179.5581591 17.31637805 167.24442363 14.65173912 154.93054771 C14.00962999 151.96314508 13.36773867 148.99569546 12.72602272 146.02820778 C8.39946925 126.02201838 4.04260465 106.02274641 -0.35206223 86.03140831 C-1.21147796 82.12176796 -2.06977253 78.21188236 -2.92788696 74.30195618 C-3.48283974 71.77364906 -4.03780178 69.24534398 -4.59277344 66.71704102 C-4.9965537 64.87746307 -4.9965537 64.87746307 -5.40849113 63.00072193 C-7.00142632 55.74656769 -8.60028387 48.49374747 -10.20301914 41.24175262 C-11.18808113 36.7779942 -12.16762895 32.31303939 -13.14562798 27.84772873 C-13.59906005 25.78333285 -14.05492321 23.71946926 -14.51335335 21.65617752 C-15.13336616 18.86463678 -15.74510217 16.07141041 -16.35473633 13.27758789 C-16.53882427 12.45856711 -16.72291222 11.63954634 -16.91257858 10.79570675 C-18.11407392 5.22814783 -18.11407392 5.22814783 -17 3 C-14.34765625 2.40234375 -14.34765625 2.40234375 -11.0625 1.9375 C-7.26722553 1.39014814 -3.73386065 0 0 0 Z " fill="#DBA65F" transform="translate(324,110)"/>
<path d="M0 0 C3.28243454 11.73506347 5.95177189 23.55762873 8.5078125 35.46875 C8.94656795 37.49971381 9.38568095 39.53060041 9.82511902 41.56141663 C10.7683185 45.92318371 11.70941722 50.28539645 12.64883423 54.64797974 C14.92529123 65.2186675 17.21302631 75.78691757 19.49965096 86.35540962 C20.30883943 90.09584226 21.11761397 93.83636425 21.92637634 97.57688904 C27.9132804 125.25760231 33.95779147 152.92570994 40.00727344 180.59280288 C41.02130086 185.23043662 42.03505718 189.86812955 43.04864502 194.50585938 C44.67401885 201.94278229 46.29978031 209.37962042 47.92578125 216.81640625 C48.17258322 217.94528826 48.41938519 219.07417027 48.673666 220.23726082 C49.36600791 223.40373656 50.05857255 226.5701635 50.7512207 229.73657227 C51.0509891 231.10769794 51.0509891 231.10769794 51.35681343 232.50652313 C51.5450411 233.36675835 51.73326878 234.22699356 51.92720032 235.11329651 C52.10510416 235.92969164 52.283008 236.74608677 52.46630287 237.58722115 C52.82839465 239.22419341 53.19967905 240.85915417 53.5792141 242.49217033 C53.85320754 243.67788722 53.85320754 243.67788722 54.13273621 244.88755798 C54.29661929 245.58312774 54.46050238 246.27869749 54.62935162 246.99534512 C55.19226536 250.03986881 55.13138421 252.912471 55 256 C53.65104264 256.51388852 52.29543517 257.01032722 50.9375 257.5 C49.80634766 257.91765625 49.80634766 257.91765625 48.65234375 258.34375 C45.38414464 259.15237658 42.35582451 259.04128129 39 259 C34.73023899 243.5979495 31.27312245 228.03794606 27.8902297 212.42174435 C27.10697416 208.81051372 26.31888185 205.20033832 25.53140259 201.59002686 C24.01629965 194.64032142 22.50544552 187.68969951 20.99619842 180.7387203 C19.25864989 172.7369945 17.51695257 164.73617361 15.77498376 156.73540914 C13.50308712 146.30041772 11.23215037 135.86521823 8.96406555 125.42939758 C8.79317624 124.64311263 8.62228692 123.85682768 8.44621915 123.04671592 C8.2761958 122.26440976 8.10617246 121.4821036 7.93099689 120.67609119 C4.38048174 104.33960283 0.82092166 88.00512764 -2.74788857 71.67262459 C-4.16368824 65.19185633 -5.57768703 58.71069499 -6.9915266 52.22949886 C-8.06703713 47.29961571 -9.14343264 42.36992969 -10.22195435 37.44070435 C-11.21007922 32.92412913 -12.19529831 28.40693045 -13.17811966 23.8891983 C-13.53084403 22.27028976 -13.88464029 20.65161431 -14.23960495 19.0331955 C-14.71459963 16.86689851 -15.18580887 14.69981323 -15.65600586 12.5324707 C-15.91780136 11.33306351 -16.17959686 10.13365631 -16.44932556 8.89790344 C-17 6 -17 6 -17 3 C-14.73000175 2.49622232 -12.45896997 1.99709981 -10.1875 1.5 C-8.29064453 1.08234375 -8.29064453 1.08234375 -6.35546875 0.65625 C-3 0 -3 0 0 0 Z " fill="#DBA65F" transform="translate(151,148)"/>
<path d="M0 0 C1.24910156 -0.01224609 2.49820313 -0.02449219 3.78515625 -0.03710938 C19.87485803 -0.06259465 19.87485803 -0.06259465 26.25 4.1875 C25.76212783 9.63032389 25.76212783 9.63032389 23.5625 12.0234375 C-0.11596469 27.78241569 -28.71770523 35.4114852 -55.75 43.1875 C-56.85553223 43.50992676 -57.96106445 43.83235352 -59.10009766 44.16455078 C-74.85899038 48.7587909 -90.71626268 52.67703845 -106.75 56.1875 C-107.76449219 56.41179687 -108.77898437 56.63609375 -109.82421875 56.8671875 C-124.08726168 60.00394985 -138.39231166 62.5773054 -152.83349609 64.74658203 C-155.50194935 65.14999963 -158.16702856 65.57059796 -160.83203125 65.99609375 C-181.71032772 69.25106664 -202.9854162 71.40946023 -224.125 71.5625 C-225.65483521 71.58316528 -225.65483521 71.58316528 -227.21557617 71.60424805 C-234.63137712 71.55794945 -242.03995669 70.54252165 -248.75 67.1875 C-248.67240349 64.54921877 -248.26642505 62.75858677 -246.47216797 60.77441406 C-210.89073518 29.91286094 -144.42067497 21.1793139 -99.75 12.1875 C-99.01861816 12.03945923 -98.28723633 11.89141846 -97.53369141 11.7388916 C-65.54629648 5.28430526 -32.68043122 0.01707442 0 0 Z M-53.75 11.1875 C-54.60632019 11.32798767 -55.46264038 11.46847534 -56.34490967 11.61322021 C-106.34869513 19.8701629 -156.77700556 30.63398986 -204.75 47.1875 C-205.64251465 47.49284668 -206.5350293 47.79819336 -207.45458984 48.11279297 C-223.62357729 52.64910211 -223.62357729 52.64910211 -236.02734375 62.36328125 C-236.26582031 62.96527344 -236.50429687 63.56726563 -236.75 64.1875 C-205.32828699 78.74314647 -136.81156741 55.48361793 -103.75 48.1875 C-102.60257324 47.93468262 -101.45514648 47.68186523 -100.27294922 47.42138672 C-86.6451525 44.39618871 -73.15222146 41.08719063 -59.75 37.1875 C-57.90980989 36.65713074 -56.06961042 36.12679378 -54.22926331 35.5969696 C-50.7979991 34.608652 -47.36763027 33.61724512 -43.9375 32.625 C-43.28109528 32.43513519 -42.62469055 32.24527039 -41.94839478 32.0496521 C-23.30678311 26.66028272 -23.30678311 26.66028272 -5 20.25 C-4.13246094 19.92837891 -3.26492188 19.60675781 -2.37109375 19.27539062 C3.34904452 17.10139505 9.27612602 14.81398654 14.25 11.1875 C14.58 10.1975 14.91 9.2075 15.25 8.1875 C11.25637995 4.19387995 3.8106073 5.75205784 -1.56341553 5.7487793 C-19.17798231 5.80963315 -36.40136275 8.33336801 -53.75 11.1875 Z " fill="#D9A35F" transform="translate(324.75,27.8125)"/>
<path d="M0 0 C0.74121094 0.00322266 1.48242188 0.00644531 2.24609375 0.00976562 C3.36177734 0.02233398 3.36177734 0.02233398 4.5 0.03515625 C5.27472656 0.03966797 6.04945313 0.04417969 6.84765625 0.04882812 C8.73180524 0.06045867 10.61591365 0.07838719 12.5 0.09765625 C8.77142791 3.45636998 4.5006011 4.61841975 -0.1875 6.09765625 C-0.95255859 6.34515625 -1.71761719 6.59265625 -2.50585938 6.84765625 C-4.07051925 7.35383097 -5.63639243 7.85626835 -7.20336914 8.35522461 C-9.30526636 9.03470473 -11.38960699 9.75285814 -13.4765625 10.4765625 C-20.94967264 12.97600114 -28.59160441 14.94835474 -36.1875 17.03515625 C-38.54204877 17.68400944 -40.8964049 18.33355434 -43.25062561 18.9835968 C-44.79962385 19.41118131 -46.34880829 19.83809185 -47.8981781 20.264328 C-52.48101246 21.5278912 -57.04734591 22.83859557 -61.609375 24.17578125 C-69.3593116 26.39666027 -77.19180116 28.18218589 -85.0625 29.91015625 C-85.83655182 30.08062469 -86.61060364 30.25109314 -87.40811157 30.42672729 C-113.92766516 36.24860146 -140.50669985 41.10837282 -167.375 45.03515625 C-168.94343155 45.26877365 -168.94343155 45.26877365 -170.54354858 45.5071106 C-182.26849947 47.24161045 -193.63262445 48.61531328 -205.5 48.09765625 C-202.72335735 46.24656115 -200.44811854 45.23754741 -197.3359375 44.109375 C-196.30581543 43.73546631 -195.27569336 43.36155762 -194.21435547 42.97631836 C-193.11236816 42.58323486 -192.01038086 42.19015137 -190.875 41.78515625 C-189.73562988 41.3785376 -188.59625977 40.97191895 -187.42236328 40.55297852 C-170.38556023 34.53000014 -152.99515255 30.06703876 -135.49291992 25.62413025 C-131.11211859 24.51148268 -126.73668553 23.37975382 -122.36328125 22.23828125 C-107.7092399 18.44819253 -93.02680728 15.31703047 -78.15234375 12.5546875 C-73.3208731 11.65608295 -68.51677774 10.68019541 -63.71444702 9.63781738 C-52.96811953 7.31085508 -42.18535875 5.53054467 -31.3125 3.91015625 C-29.58781871 3.6482596 -27.86320904 3.38589091 -26.13867188 3.12304688 C-5.26615308 -0.04114182 -5.26615308 -0.04114182 0 0 Z " fill="#AA6356" transform="translate(311.5,44.90234375)"/>
<path d="M0 0 C1.6484375 2.16015625 1.6484375 2.16015625 3.375 5.0625 C6.0903133 9.5246072 8.91220362 13.78936858 12 18 C9.69 17.67 7.38 17.34 5 17 C11.435 20.465 11.435 20.465 18 24 C17.01 24.99 16.02 25.98 15 27 C15.33 27 15.66 27 16 27 C16.99 27 17.98 27 19 27 C18.7834375 27.69867188 18.566875 28.39734375 18.34375 29.1171875 C18.0653125 30.02726562 17.786875 30.93734375 17.5 31.875 C17.2215625 32.77992188 16.943125 33.68484375 16.65625 34.6171875 C15.91149206 36.90944647 15.91149206 36.90944647 16 39 C17.98 35.37 19.96 31.74 22 28 C22.99 28.99 23.98 29.98 25 31 C25.99 31 26.98 31 28 31 C30.21350338 32.28526003 32.35237989 33.61242796 34.5 35 C40.43147198 38.72810091 46.42658182 41.55515212 52.9375 44.125 C60.98137752 47.33124515 67.09354109 50.64031164 72 58 C72.11980659 60.49548351 72.13814543 62.88541829 72.0625 65.375 C71.93777274 71.77912488 72.27420264 77.96032003 73.07421875 84.328125 C72.98446026 87.55943054 72.25960896 88.73511158 70 91 C67.5625 91.5625 67.5625 91.5625 65 91 C61.63579778 87.46823216 60.27889985 84.36811692 59.0625 79.6875 C57.64974029 74.73723483 56.01295991 70.78617844 53.05078125 66.5859375 C52 65 52 65 51 62 C49.16819875 60.88314804 49.16819875 60.88314804 47 60 C46.36964844 59.66742188 45.73929688 59.33484375 45.08984375 58.9921875 C39.37038483 56.02346654 33.51327282 53.51974677 27.5625 51.0625 C11.2513381 44.25511877 -5.6521359 34.95130012 -13.33984375 18.01171875 C-14.52670459 14.39495347 -14.49900422 11.80490717 -14 8 C-11.032719 2.65889421 -6.11373279 0 0 0 Z " fill="#E4C26E" transform="translate(190,177)"/>
<path d="M0 0 C0.96066154 4.65893969 1.92093175 9.31795982 2.88085938 13.97705078 C3.20660152 15.55780143 3.53244549 17.13853109 3.85839844 18.71923828 C5.59509934 27.14170491 7.32646323 35.56469849 9 44 C-4.60828861 47.35486637 -18.17698044 50.65152872 -32 53 C-34.52805806 44.05999581 -36.7579454 35.0601305 -38.8125 26 C-39.04348389 25.021521 -39.27446777 24.04304199 -39.51245117 23.03491211 C-39.7210376 22.09526611 -39.92962402 21.15562012 -40.14453125 20.1875 C-40.33378174 19.35605469 -40.52303223 18.52460938 -40.71801758 17.66796875 C-41.07303987 14.30893534 -40.57770992 11.3148878 -40 8 C-35.10862328 6.85366099 -30.21563926 5.71455323 -25.32104492 4.58203125 C-23.65717501 4.19598104 -21.99375648 3.80797988 -20.33081055 3.41796875 C-17.93655341 2.85680355 -15.54074561 2.30273984 -13.14453125 1.75 C-12.4047554 1.57500977 -11.66497955 1.40001953 -10.90278625 1.21972656 C-7.20437283 0.37391908 -3.79803871 -0.20864762 0 0 Z " fill="#AA6256" transform="translate(313,420)"/>
<path d="M0 0 C1.55810547 2.11035156 1.55810547 2.11035156 2.8671875 4.890625 C3.35743408 5.90487549 3.84768066 6.91912598 4.3527832 7.96411133 C4.85511475 9.04845459 5.35744629 10.13279785 5.875 11.25 C6.92661034 13.44746494 7.97998437 15.64408676 9.03515625 17.83984375 C9.54062988 18.90187012 10.04610352 19.96389648 10.56689453 21.05810547 C12.84029335 25.72496335 15.38758653 30.21492218 17.98828125 34.70703125 C19 37 19 37 18 40 C15.68676758 41.13500977 15.68676758 41.13500977 12.64453125 42.19140625 C11.54689453 42.57876953 10.44925781 42.96613281 9.31835938 43.36523438 C8.16142578 43.76033203 7.00449219 44.15542969 5.8125 44.5625 C4.67490234 44.96146484 3.53730469 45.36042969 2.36523438 45.77148438 C-0.75201707 46.86152151 -3.87316958 47.93778025 -7 49 C-8.56681519 49.55482056 -8.56681519 49.55482056 -10.1652832 50.12084961 C-13.24844943 51.07705334 -15.79113269 51.15280321 -19 51 C-19.21092285 50.38705078 -19.4218457 49.77410156 -19.63916016 49.14257812 C-20.63221369 46.26094475 -21.62807765 43.38029728 -22.625 40.5 C-22.98529297 39.45875977 -23.34558594 38.41751953 -23.71679688 37.34472656 C-26.11652521 30.44497667 -28.59819941 23.5856979 -31.27197266 16.78710938 C-32.344303 14.01272701 -33 12.00860968 -33 9 C-29.10966121 7.54155191 -25.21369439 6.09967206 -21.31176758 4.67260742 C-19.98622079 4.18521929 -18.66229392 3.69340109 -17.34008789 3.19702148 C-15.43527921 2.48280777 -13.52514429 1.78491711 -11.61328125 1.08984375 C-10.46641846 0.66566162 -9.31955566 0.24147949 -8.13793945 -0.19555664 C-4.82344995 -1.04526044 -3.15799069 -1.30491265 0 0 Z " fill="#AA6256" transform="translate(384,400)"/>
<path d="M0 0 C2.14391895 1.03225727 4.10641075 2.07416507 6.0625 3.4375 C14.44039617 7.89382775 24.417206 8.84978773 33.6875 10.1875 C34.87794922 10.36474609 36.06839844 10.54199219 37.29492188 10.72460938 C40.19579509 11.15566283 43.09741212 11.5806768 46 12 C46 12.66 46 13.32 46 14 C45.38898438 14.08894531 44.77796875 14.17789062 44.1484375 14.26953125 C33.42635365 16.36864344 24.22699939 21.6889419 14.6015625 26.65917969 C-3.31298409 35.89216485 -19.75946694 41.22716016 -40 41.0625 C-41.06089844 41.05798828 -42.12179688 41.05347656 -43.21484375 41.04882812 C-45.80995598 41.03713843 -48.40494709 41.02075276 -51 41 C-50.09141851 35.31190131 -47.72467482 33.00659206 -43.08984375 29.59326172 C-37.62355715 25.8444903 -32.10359197 23.10994409 -26 20.5625 C-16.77764091 16.56028034 -8.91619416 12.41919938 -3 4 C-2.13375 2.8553125 -2.13375 2.8553125 -1.25 1.6875 C-0.63125 0.8521875 -0.63125 0.8521875 0 0 Z " fill="#F2A251" transform="translate(269,317)"/>
<path d="M0 0 C1.782721 9.53313217 3.35807831 19.07995524 4.6875 28.6875 C4.81874268 29.61900879 4.94998535 30.55051758 5.08520508 31.51025391 C5.20532959 32.3976123 5.3254541 33.2849707 5.44921875 34.19921875 C5.60910278 35.37230591 5.60910278 35.37230591 5.7722168 36.5690918 C6.0365067 39.38960046 6.03609722 42.16880014 6 45 C2.00097233 45.5079846 -1.99935384 46.00493676 -6 46.5 C-7.12535156 46.64308594 -8.25070313 46.78617187 -9.41015625 46.93359375 C-11.06337891 47.13662109 -11.06337891 47.13662109 -12.75 47.34375 C-13.75546875 47.46943359 -14.7609375 47.59511719 -15.796875 47.72460938 C-19.55492308 48.04770985 -23.2288415 48.04285407 -27 48 C-27.43146845 42.87745971 -27.85856067 37.75457953 -28.28173828 32.63134766 C-28.42606621 30.89134053 -28.57155464 29.15142924 -28.71826172 27.41162109 C-28.92987087 24.89966209 -29.13719659 22.38737918 -29.34375 19.875 C-29.40937134 19.10696045 -29.47499268 18.3389209 -29.54260254 17.54760742 C-29.93751219 12.68102795 -30.05812828 7.88277544 -30 3 C-26.31349888 2.49244803 -22.62566225 1.99532488 -18.9375 1.5 C-17.89916016 1.35691406 -16.86082031 1.21382813 -15.79101562 1.06640625 C-10.4778409 0.35798295 -5.36039482 -0.18248153 0 0 Z " fill="#AA6256" transform="translate(234,435)"/>
<path d="M0 0 C2.9322583 1.80971983 4.33461501 3.28164671 5.1953125 6.671875 C5.48525963 10.35742513 5.4743173 12.69825801 3.05859375 15.625 C-2.44454591 20.10612801 -8.72126631 23.12232781 -15.31640625 25.65625 C-15.97801758 25.91736572 -16.63962891 26.17848145 -17.32128906 26.44750977 C-22.9879621 28.53683172 -28.04738094 29.16414796 -34.06640625 29.09375 C-34.93168945 29.09052734 -35.79697266 29.08730469 -36.68847656 29.08398438 C-44.09850667 28.92427358 -50.42737754 27.47220334 -57.31640625 24.65625 C-52.21117151 12.59920624 -36.21034579 5.61201471 -24.87890625 0.65625 C-17.03814296 -2.18794845 -7.86420577 -3.18643909 0 0 Z " fill="#F2A251" transform="translate(297.31640625,158.34375)"/>
<path d="M0 0 C0.33 0.66 0.66 1.32 1 2 C1.72445312 1.89558594 2.44890625 1.79117187 3.1953125 1.68359375 C6.32926986 1.42034133 8.91181395 1.36958409 12 2 C14.12412703 4.01641268 15.31848871 5.96253509 16.68359375 8.54296875 C23.49981563 21.26523452 39.26131015 28.05496664 52.41015625 32.03125 C63.80847926 34.75775916 75.35538273 34.29593384 87 34 C84.26400048 35.82399968 81.99802745 36.87266903 78.9375 38 C77.62072266 38.495 77.62072266 38.495 76.27734375 39 C57.01917435 44.87615181 35.83981503 43.65389108 17.5625 35.25 C10.38023702 31.36531553 3.6407783 26.80714347 0.54272461 18.9777832 C-0.45021763 15.35932839 -0.31193194 11.78588652 -0.1875 8.0625 C-0.17396484 7.28326172 -0.16042969 6.50402344 -0.14648438 5.70117188 C-0.11150224 3.80047596 -0.05770959 1.90014166 0 0 Z " fill="#E3C26E" transform="translate(217,356)"/>
<path d="M0 0 C1.60379341 -0.05416188 3.20811406 -0.09286638 4.8125 -0.125 C5.70582031 -0.14820313 6.59914063 -0.17140625 7.51953125 -0.1953125 C10 0 10 0 13 2 C15.32919226 9.13135408 17.76536813 18.51189685 16 26 C11.9247421 30.0752579 6.41801558 31.37651661 1 33 C-0.5778125 33.5878125 -0.5778125 33.5878125 -2.1875 34.1875 C-8.05766586 35.43851895 -14.02309385 35.51058997 -20 35 C-24.56970607 31.95352929 -24.62422321 27.79142084 -25.8125 22.625 C-26.05419922 21.6659375 -26.29589844 20.706875 -26.54492188 19.71875 C-26.76341797 18.79320312 -26.98191406 17.86765625 -27.20703125 16.9140625 C-27.4078833 16.0679541 -27.60873535 15.2218457 -27.81567383 14.35009766 C-28.0339803 11.56676244 -27.50557934 10.31809394 -26 8 C-22.92692792 5.60078228 -19.96061609 4 -16 4 C-16 5.65 -16 7.3 -16 9 C-13.87439563 8.69163768 -11.74952935 8.37818386 -9.625 8.0625 C-8.44164062 7.88847656 -7.25828125 7.71445312 -6.0390625 7.53515625 C-3.09297619 7.16537214 -3.09297619 7.16537214 -1 6 C-0.34227572 2.97065509 -0.34227572 2.97065509 0 0 Z " fill="#AA6356" transform="translate(378,360)"/>
<path d="M0 0 C1.79093191 -0.08086147 3.58289628 -0.13912702 5.375 -0.1875 C6.87160156 -0.23970703 6.87160156 -0.23970703 8.3984375 -0.29296875 C9.25695312 -0.19628906 10.11546875 -0.09960938 11 0 C13.3289447 3.49341705 13.90131992 6.70329917 14.625 10.75 C14.82609375 11.78640625 14.82609375 11.78640625 15.03125 12.84375 C15.85227411 17.30073803 16.13045606 21.46961696 16 26 C6.35708548 31.29209842 -2.49184038 34.21669268 -13.5 34.5 C-14.19496582 34.5306958 -14.88993164 34.5613916 -15.60595703 34.59301758 C-17.59375 34.59375 -17.59375 34.59375 -21 34 C-24.25026605 30.38859328 -25.12075339 25.63675501 -26.25 21 C-26.435625 20.30132812 -26.62125 19.60265625 -26.8125 18.8828125 C-27.78490806 14.97844682 -28.4640472 11.82046603 -27 8 C-25.4765625 6.671875 -25.4765625 6.671875 -23.625 5.75 C-23.01914063 5.43546875 -22.41328125 5.1209375 -21.7890625 4.796875 C-20 4 -20 4 -17 3 C-16.67 4.98 -16.34 6.96 -16 9 C-10.72 8.01 -5.44 7.02 0 6 C0 4.02 0 2.04 0 0 Z " fill="#AA6255" transform="translate(206,398)"/>
<path d="M0 0 C2.14549069 3.21823603 2.80896176 5.62942721 3.6875 9.375 C3.95949219 10.49648437 4.23148437 11.61796875 4.51171875 12.7734375 C4.99476933 15.96543572 5.04344317 17.96063732 4 21 C-6.01735538 28.40413224 -21.82815252 30.57297721 -34 29 C-36.18994248 25.71508627 -36.35277339 24.16904361 -36.625 20.3125 C-36.73714844 18.82169922 -36.73714844 18.82169922 -36.8515625 17.30078125 C-36.90054687 16.54152344 -36.94953125 15.78226563 -37 15 C-36.30551758 14.75878418 -35.61103516 14.51756836 -34.89550781 14.26904297 C-16.99217369 8.19337873 -16.99217369 8.19337873 0 0 Z " fill="#AA6256" transform="translate(329,85)"/>
<path d="M0 0 C1.42500059 3.99000166 2.40075776 7.80530429 3 12 C-5.88134081 20.30835108 -21.29489343 22.35985768 -33.01171875 22.30078125 C-35 22 -35 22 -38 20 C-38.94921875 16.8828125 -38.94921875 16.8828125 -39.6875 13.125 C-39.93886719 11.89007813 -40.19023438 10.65515625 -40.44921875 9.3828125 C-41 6 -41 6 -41 2 C-40.04130005 1.96241577 -40.04130005 1.96241577 -39.06323242 1.92407227 C-36.10453255 1.80642853 -33.14602406 1.68448222 -30.1875 1.5625 C-29.18267578 1.52318359 -28.17785156 1.48386719 -27.14257812 1.44335938 C-21.20173237 1.1950282 -15.3030715 0.80201955 -9.38671875 0.20507812 C-6.24091691 -0.065224 -3.15507081 -0.07011268 0 0 Z " fill="#AA6256" transform="translate(159,130)"/>
<path d="M0 0 C2.79233071 2.55277419 3.48967606 4.22360282 4 8 C-0.48976585 12.17209374 -4.42402673 14.26197565 -10.25 16.0625 C-11.42973389 16.43592529 -11.42973389 16.43592529 -12.63330078 16.81689453 C-15.08151302 17.57285256 -17.53692391 18.29407627 -20 19 C-20.74926758 19.2160791 -21.49853516 19.4321582 -22.27050781 19.65478516 C-34.16769902 22.97009364 -45.67743296 23.76467608 -58 23 C-59 22 -59 22 -59.09765625 19.93359375 C-59.08605469 19.10988281 -59.07445312 18.28617187 -59.0625 17.4375 C-59.05347656 16.61121094 -59.04445313 15.78492188 -59.03515625 14.93359375 C-59.02355469 14.29550781 -59.01195312 13.65742188 -59 13 C-58.13761719 13.03480469 -57.27523438 13.06960938 -56.38671875 13.10546875 C-36.51518395 13.5461258 -17.49869201 9.67574735 0 0 Z " fill="#DDDDF8" transform="translate(317,394)"/>
<path d="M0 0 C2.67857172 0.36196915 4.60980914 0.73987276 6.875 2.25 C8 4 8 4 8.1875 6.3125 C5.13755093 13.21501631 -2.81350275 16.21040322 -9.47119141 18.80688477 C-23.10982722 23.74568935 -37.12128539 26.42822236 -51.625 26.5 C-52.59050781 26.50628418 -53.55601562 26.51256836 -54.55078125 26.51904297 C-59.42377185 26.42954261 -63.13358244 26.3152134 -67 23 C-67.625 20.5625 -67.625 20.5625 -67 18 C-64.5 15.6875 -64.5 15.6875 -62 14 C-61.34 15.98 -60.68 17.96 -60 20 C-41.80271547 21.09793672 -15.16659895 19.34318813 -0.16015625 7.5546875 C1.35079101 5.8939553 1.35079101 5.8939553 0.6875 2.8125 C0.460625 1.884375 0.23375 0.95625 0 0 Z " fill="#8E4F57" transform="translate(319,396)"/>
<path d="M0 0 C8.87102349 0.31287842 16.79384966 5.35798948 23 11.375 C26.40270042 15.3389706 29.34232602 19.04629276 29.375 24.4375 C29.189375 25.8915625 29.189375 25.8915625 29 27.375 C27.21875 28.0234375 27.21875 28.0234375 25 28.375 C23.28125 27.4765625 23.28125 27.4765625 21.5 26 C20.80648438 25.44441406 20.11296875 24.88882812 19.3984375 24.31640625 C18.21121094 23.35541016 18.21121094 23.35541016 17 22.375 C15.04768156 20.88790344 13.08895033 19.40920057 11.125 17.9375 C10.11179687 17.17179687 9.09859375 16.40609375 8.0546875 15.6171875 C4.38511126 12.92366223 0.60474573 10.42519186 -3.234375 7.98046875 C-4.10835938 7.18576172 -4.10835938 7.18576172 -5 6.375 C-5 1.60046511 -4.7701473 0.59626841 0 0 Z " fill="#FAF9FD" transform="translate(301,285.625)"/>
<path d="M0 0 C5.7101072 2.10372371 9.56731569 4.85097354 13 10 C13.50835292 13.8973724 13.32962183 15.50556726 11.125 18.8125 C8.61855093 21.39266816 7.74538327 21.91717964 4.1875 22.3125 C0.14788144 21.91645896 -1.29729155 21.01158942 -4 18 C-5.86900434 12.91215486 -4.70071047 9.80189529 -2.5625 5.0625 C-1.72488279 3.36672456 -0.87601991 1.67625955 0 0 Z " fill="#F2A456" transform="translate(259,275)"/>
<path d="M0 0 C3.63 0 7.26 0 11 0 C11.495 1.485 11.495 1.485 12 3 C6.88231643 9.51341545 -3.04107835 12.03234995 -11 13 C-23.97768763 13.68154158 -23.97768763 13.68154158 -28 11 C-26.98244259 8.33869601 -26.33315139 7.19483944 -23.8359375 5.734375 C-23.02382812 5.40953125 -22.21171875 5.0846875 -21.375 4.75 C-20.55773437 4.41484375 -19.74046875 4.0796875 -18.8984375 3.734375 C-18.27195313 3.49203125 -17.64546875 3.2496875 -17 3 C-16.67 4.98 -16.34 6.96 -16 9 C-10.72 8.01 -5.44 7.02 0 6 C0 4.02 0 2.04 0 0 Z " fill="#BC7A5A" transform="translate(206,398)"/>
<path d="M0 0 C1.25955231 3.77865693 0.48087189 5.03411786 -0.9375 8.6875 C-1.31777344 9.68136719 -1.69804687 10.67523438 -2.08984375 11.69921875 C-2.39019531 12.45847656 -2.69054687 13.21773437 -3 14 C-2.236875 13.649375 -1.47375 13.29875 -0.6875 12.9375 C2 12 2 12 5 13 C2.35261084 14.4606285 1.10551666 15 -2 15 C-2 15.66 -2 16.32 -2 17 C-1.175 17.2475 -0.35 17.495 0.5 17.75 C4.52373471 19.18704811 8.21979024 21.02354515 12 23 C8.22134307 24.25955231 6.96588214 23.48087189 3.3125 22.0625 C2.31863281 21.68222656 1.32476562 21.30195313 0.30078125 20.91015625 C-0.45847656 20.60980469 -1.21773437 20.30945313 -2 20 C-2 21.98 -2 23.96 -2 26 C-3.32 24.35 -4.64 22.7 -6 21 C-8.31 25.62 -10.62 30.24 -13 35 C-14.35304209 30.94087374 -13.15216503 29.22850409 -11.5625 25.3125 C-11.08941406 24.13300781 -10.61632812 22.95351562 -10.12890625 21.73828125 C-9.75636719 20.83464844 -9.38382813 19.93101562 -9 19 C-11.64 19.66 -14.28 20.32 -17 21 C-15.60804085 18.2160817 -13.84424221 18.02101003 -11 17 C-13.79624958 14.81302498 -16.63307872 13.00847187 -19.75 11.3125 C-20.54921875 10.87550781 -21.3484375 10.43851563 -22.171875 9.98828125 C-22.77515625 9.66214844 -23.3784375 9.33601562 -24 9 C-22 8 -22 8 -18.9609375 8.99609375 C-17.18589844 9.70958984 -17.18589844 9.70958984 -15.375 10.4375 C-14.18648437 10.91058594 -12.99796875 11.38367188 -11.7734375 11.87109375 C-10.85820312 12.24363281 -9.94296875 12.61617187 -9 13 C-9.33 11.02 -9.66 9.04 -10 7 C-9.34 7.33 -8.68 7.66 -8 8 C-7.67 8.99 -7.34 9.98 -7 11 C-6.34 11.33 -5.68 11.66 -5 12 C-4.731875 11.13375 -4.46375 10.2675 -4.1875 9.375 C-3.02888013 6.08208036 -1.61790161 3.08872125 0 0 Z " fill="#FCF6E7" transform="translate(218,185)"/>
<path d="M0 0 C-0.33 1.98 -0.66 3.96 -1 6 C1.64 6.33 4.28 6.66 7 7 C6.67 7.66 6.34 8.32 6 9 C3.37493198 9.02690844 0.75013827 9.04679404 -1.875 9.0625 C-2.62136719 9.07087891 -3.36773437 9.07925781 -4.13671875 9.08789062 C-9.7734375 9.11328125 -9.7734375 9.11328125 -12 8 C-10.95505436 4.74905801 -9.40864509 3.43126714 -6.5625 1.75 C-3 0 -3 0 0 0 Z " fill="#BE7C59" transform="translate(362,364)"/>
<path d="M0 0 C1.62490954 -0.02698189 3.24994633 -0.04638757 4.875 -0.0625 C5.77992188 -0.07410156 6.68484375 -0.08570313 7.6171875 -0.09765625 C10 0 10 0 12 1 C11.875 2.75 11.875 2.75 11 5 C7.1102747 8.16605547 3.98243747 9.52548215 -1 10 C-0.0022242 7.00667261 0.7522025 6.05233685 3 4 C2.34 4 1.68 4 1 4 C0.67 4.66 0.34 5.32 0 6 C0 4.02 0 2.04 0 0 Z " fill="#BD7B59" transform="translate(378,360)"/>
<path d="M0 0 C3.5 0.1875 3.5 0.1875 7 1 C9 4 9 4 8.6875 6.125 C8 8 8 8 7 9 C3.52743085 9.30867281 1.6127712 9.38701339 -1.375 7.5 C-1.91125 7.005 -2.4475 6.51 -3 6 C-2.42655063 3.13275314 -2.1385485 2.1385485 0 0 Z " fill="#F9F8FD" transform="translate(283,279)"/>
<path d="M0 0 C0.66 1.32 1.32 2.64 2 4 C1.34 4 0.68 4 0 4 C0 4.99 0 5.98 0 7 C2.97 7.495 2.97 7.495 6 8 C4 10 4 10 1.50390625 10.265625 C0.04791016 10.25789063 0.04791016 10.25789063 -1.4375 10.25 C-2.88962891 10.25773437 -2.88962891 10.25773437 -4.37109375 10.265625 C-7 10 -7 10 -10 8 C-8.60344703 4.50126729 -7.28739516 3.29108169 -3.875 1.75 C-3.15054688 1.41484375 -2.42609375 1.0796875 -1.6796875 0.734375 C-1.12539062 0.49203125 -0.57109375 0.2496875 0 0 Z " fill="#BF7B59" transform="translate(188,401)"/>
<path d="M0 0 C0.66 0.33 1.32 0.66 2 1 C2.90591398 3.95820059 3.40058396 6.96010437 4 10 C0.7 10 -2.6 10 -6 10 C-5.58578031 5.16743695 -3.53586014 3.17320782 0 0 Z " fill="#DF9C58" transform="translate(224,348)"/>
<path d="M0 0 C2.47628413 4.62239704 3.13912896 8.38315606 3.125 13.625 C3.12757813 14.58664063 3.13015625 15.54828125 3.1328125 16.5390625 C3 19 3 19 2 21 C1.34 21 0.68 21 0 21 C-1.45497499 14.27074066 -1.9718625 6.66677322 0 0 Z " fill="#D8D5DD" transform="translate(262,236)"/>
<path d="M0 0 C0.99 0.33 1.98 0.66 3 1 C-0.06519481 4.53676324 -2.41941881 6.00060047 -7 7 C-10.67361546 7.15201167 -14.32582968 7.11767805 -18 7 C-18 6.01 -18 5.02 -18 4 C-17.34 4 -16.68 4 -16 4 C-16 4.66 -16 5.32 -16 6 C-10.72 5.01 -5.44 4.02 0 3 C0 2.01 0 1.02 0 0 Z " fill="#945353" transform="translate(206,401)"/>
<path d="M0 0 C0.33 0.66 0.66 1.32 1 2 C4.3 2 7.6 2 11 2 C6.78370866 4.10814567 4.60209225 4.17700355 0 4 C0 2.68 0 1.36 0 0 Z " fill="#9A5954" transform="translate(361,367)"/>
<path d="M0 0 C0.6875 1.75 0.6875 1.75 1 4 C-0.125 6.25 -0.125 6.25 -2 8 C-4.6875 8.25 -4.6875 8.25 -7 8 C-6.21625 7.4225 -5.4325 6.845 -4.625 6.25 C-2.19952756 4.17102363 -1.14305583 2.90959667 0 0 Z " fill="#F2CF7D" transform="translate(262,260)"/>
</svg>
